<?xml version="1.0" standalone="no"?><!DOCTYPE svg PUBLIC "-//W3C//DTD SVG 1.1//EN" "http://www.w3.org/Graphics/SVG/1.1/DTD/svg11.dtd"><svg t="1532662052285" class="icon" style="" viewBox="0 0 1024 1024" version="1.1" xmlns="http://www.w3.org/2000/svg" p-id="1180" xmlns:xlink="http://www.w3.org/1999/xlink" width="32" height="32"><defs><style type="text/css"></style></defs><path d="M512 0C229.248 0 0 229.248 0 512c0 282.752 229.248 512 512 512 282.688 0 512-229.248 512-512C1024 229.248 794.752 0 512 0zM824.896 364.928l-351.04 343.808c-1.792 2.88-3.904 5.888-6.784 8.768l-16.448 16.512c-9.088 9.088-19.776 13.056-23.936 8.96L259.52 568C255.424 563.904 259.456 553.152 268.544 544.128l16.448-16.448c9.088-9.152 19.84-13.184 23.936-9.088l125.312 131.136 341.312-334.208c9.088-9.088 23.808-9.088 33.024 0l16.384 16.448C833.92 341.056 833.92 355.84 824.896 364.928z" p-id="1181"></path></svg>